<?xml version="1.0" encoding="utf-8"?>
<!-- Generator: Adobe Illustrator 25.3.1, SVG Export Plug-In . SVG Version: 6.00 Build 0)  -->
<svg version="1.1" id="Layer_1" xmlns="http://www.w3.org/2000/svg" xmlns:xlink="http://www.w3.org/1999/xlink" x="0px" y="0px"
	 viewBox="0 0 283.46 283.46" style="enable-background:new 0 0 283.46 283.46;" xml:space="preserve">
<style type="text/css">
	.st0{fill:#FFFFFF;}
	.st1{fill:#7B0000;}
	.st2{fill:#8DC63F;}
	.st3{fill:#D7DF23;}
</style>
<g>
	<path class="st0" d="M54.97,31c-1.01,0-0.97,0.65-1.25,1.6c-0.56,1.84,2.29,8.2,3.78,14.36c7.66,31.66-1.4,55.66,4.28,92.55
		c5.11,33.16,19.72,55.68,63.09,64.51c30,6.11,36.43,3.79,72.17,10.81c27.74,5.45,44.53,26.62,44.53,26.62
		c2.58,0,1.94-15.77-24.83-31.36c-9.7-5.65-27.11-9.81-29.2-12.28c-5.3-6.27,19.54-20.17,25.43-43.38
		c7.18-28.29-4.3-60.33-25.47-75.77c-24.06-17.55-41.43-20.19-56.17-22.47c-23.94-3.71-39.2-1.26-58.72-8.17
		C62.14,44.32,57.88,30.99,54.97,31z"/>
	<g>
		<g>
			<g>
				<path class="st1" d="M64.17,190.33l-0.41-0.79l6.29-3.3c0.24-0.12,0.43-0.26,0.59-0.41c0.16-0.15,0.28-0.31,0.35-0.49
					c0.08-0.18,0.1-0.37,0.08-0.58s-0.1-0.44-0.23-0.68l-1.65-3.15l-7.81,4.09l-1.22-2.33l0.79-0.42l0.82,1.57l6.99-3.66l-0.52-1
					l0.91-0.23c0.22,0.41,0.43,0.8,0.64,1.17c0.08,0.16,0.17,0.32,0.25,0.48c0.09,0.16,0.17,0.32,0.25,0.46
					c0.08,0.15,0.16,0.29,0.22,0.41c0.07,0.12,0.12,0.23,0.17,0.31c0.1,0.2,0.21,0.4,0.32,0.61s0.22,0.42,0.32,0.62
					c0.1,0.2,0.19,0.38,0.28,0.55c0.09,0.17,0.16,0.32,0.21,0.44c0.28,0.63,0.33,1.19,0.13,1.68c-0.19,0.49-0.66,0.93-1.4,1.32
					L64.17,190.33z"/>
				<path class="st1" d="M67.75,195.23l-0.53-0.7l6.99-5.34l-0.47-0.61l-0.54-0.71l0.91-0.33l0.86,1.13l0.51,0.67L67.75,195.23z"/>
				<path class="st1" d="M75.96,203.69l-0.81-0.76l1.26-7.46l-5.64,3.36l-0.65-0.61l5.88-3.49l0.47,0.44l0.42-2.72l-0.85-0.79
					l0.75-0.51l1.09,1.01l-1.04,6.29l0.02,0.02l4.96-2.63l0.68,0.63l-5.21,2.73l-0.51-0.49L75.96,203.69z"/>
				<path class="st1" d="M82.73,203.08l-0.71-0.5l2.48-3.54l-1.28-0.89l0.81-0.65l1.75,1.23L82.73,203.08z"/>
				<path class="st1" d="M88.33,211.49l-0.79-0.43l3.31-6.02c0.17-0.3,0.29-0.57,0.37-0.8c0.08-0.23,0.11-0.45,0.08-0.64
					c-0.03-0.2-0.12-0.38-0.28-0.54c-0.16-0.17-0.39-0.34-0.71-0.51L89.34,202L87,200.72l0.62-0.69c0.27,0.14,0.54,0.28,0.81,0.41
					c0.23,0.11,0.46,0.23,0.71,0.36c0.24,0.13,0.46,0.24,0.64,0.34c0.11,0.06,0.23,0.13,0.37,0.2c0.14,0.08,0.29,0.16,0.44,0.24
					s0.3,0.17,0.45,0.26c0.15,0.09,0.27,0.17,0.38,0.25c0.33,0.23,0.56,0.48,0.7,0.74c0.13,0.26,0.19,0.53,0.18,0.81
					c-0.01,0.28-0.07,0.56-0.19,0.85s-0.26,0.58-0.42,0.88L88.33,211.49z"/>
				<path class="st1" d="M98.77,214.97l-0.6,0.78l-6.52-2.67L92,212.2l4.93,2.02l2.26-5.54c0.12-0.29,0.21-0.55,0.26-0.79
					c0.05-0.23,0.06-0.44,0.01-0.63c-0.05-0.19-0.16-0.36-0.32-0.5c-0.17-0.15-0.41-0.29-0.72-0.42l-3.5-1.43l0.54-0.75
					c0.37,0.13,0.73,0.26,1.07,0.39c0.35,0.13,0.66,0.26,0.95,0.37c0.2,0.08,0.4,0.17,0.61,0.25c0.21,0.09,0.41,0.18,0.6,0.26
					s0.36,0.17,0.52,0.24s0.28,0.14,0.37,0.21c0.29,0.19,0.51,0.4,0.64,0.61c0.14,0.22,0.21,0.45,0.23,0.69
					c0.02,0.24-0.01,0.5-0.08,0.78c-0.07,0.28-0.17,0.57-0.3,0.88l-1.44,3.53l-0.89,2.17L98.77,214.97z"/>
				<path class="st1" d="M108.9,214.5l-0.84-0.24l1.18-4.16l-1.5-0.43l0.55-0.88l2.06,0.58L108.9,214.5z"/>
				<path class="st1" d="M116.49,220.91l-0.87-0.21l1.57-6.68c0.08-0.33,0.13-0.62,0.14-0.87c0.02-0.25-0.01-0.46-0.09-0.64
					s-0.22-0.33-0.41-0.45s-0.47-0.22-0.82-0.3l-1.09-0.26l-2.59-0.61l0.41-0.83c0.3,0.06,0.59,0.12,0.89,0.18
					c0.25,0.05,0.51,0.1,0.78,0.16s0.51,0.11,0.71,0.16c0.12,0.03,0.26,0.06,0.41,0.1c0.16,0.04,0.32,0.08,0.49,0.12
					c0.17,0.04,0.34,0.08,0.5,0.13c0.17,0.05,0.31,0.09,0.44,0.14c0.38,0.14,0.67,0.31,0.87,0.53c0.2,0.22,0.33,0.46,0.39,0.73
					c0.07,0.27,0.08,0.56,0.04,0.87c-0.04,0.31-0.09,0.63-0.17,0.96L116.49,220.91z"/>
				<path class="st1" d="M128.1,213.17l-3.01,4.62l-0.67-0.11l1.66,4.87l-0.11,0.12l-5.88-1l0.18-1.05l4.44,0.75l-2.73-8.29
					l-1.15-0.19l0.45-0.88l1.41,0.24l1.67,5.03l2.8-4.27L128.1,213.17z"/>
				<path class="st1" d="M131.19,223.33l-0.87-0.11l1.08-8.73l-0.77-0.09l-0.89-0.11l0.4-0.88l1.41,0.17l0.83,0.1L131.19,223.33z"/>
				<path class="st1" d="M141.82,224.49l-3.43-0.36l0.1-0.91l2.53,0.27l0.47-4.48l0.16-1.55c0.04-0.4,0.02-0.72-0.06-0.97
					c-0.08-0.25-0.22-0.46-0.4-0.61c-0.18-0.16-0.4-0.27-0.67-0.35s-0.56-0.13-0.88-0.17c-0.32-0.04-0.61-0.06-0.87-0.07
					s-0.5,0.01-0.72,0.04c-0.22,0.03-0.43,0.08-0.63,0.15c-0.2,0.07-0.4,0.16-0.6,0.27l-1.77,8.04l-0.91-0.1l1.75-7.89l-1.09-1.68
					l0.04-0.12l1.07,0.11l0.77,1.1l1-0.65c0.11-0.04,0.24-0.07,0.4-0.1c0.16-0.03,0.32-0.05,0.49-0.06s0.34-0.02,0.51-0.02
					s0.32,0.01,0.45,0.02c0.38,0.05,0.72,0.1,1.03,0.17c0.31,0.07,0.56,0.14,0.76,0.22c0.27,0.11,0.5,0.25,0.67,0.41
					c0.18,0.16,0.31,0.35,0.41,0.57c0.1,0.22,0.15,0.49,0.17,0.79c0.02,0.3,0.01,0.65-0.04,1.05L141.82,224.49z"/>
				<path class="st1" d="M157.81,226.32l-0.88-0.11l0.88-7.05c0.03-0.26,0.04-0.5,0.01-0.72c-0.03-0.22-0.09-0.41-0.2-0.57
					c-0.1-0.16-0.25-0.3-0.43-0.4c-0.19-0.1-0.42-0.17-0.69-0.2l-3.53-0.44l-1.1,8.75l-2.61-0.33l0.11-0.89l1.75,0.22l0.98-7.82
					l-1.12-0.14l0.33-0.88c0.46,0.05,0.9,0.1,1.32,0.14c0.18,0.02,0.35,0.04,0.54,0.06s0.36,0.04,0.52,0.06
					c0.17,0.02,0.32,0.03,0.46,0.05c0.14,0.01,0.26,0.03,0.35,0.04c0.22,0.03,0.45,0.06,0.69,0.09c0.24,0.03,0.47,0.06,0.69,0.09
					c0.22,0.03,0.42,0.06,0.61,0.09c0.19,0.03,0.35,0.05,0.48,0.07c0.68,0.13,1.17,0.41,1.46,0.85c0.29,0.44,0.38,1.07,0.28,1.9
					L157.81,226.32z"/>
				<path class="st1" d="M162.62,227.08l-0.87-0.14l1.4-8.69l-0.76-0.12l-0.88-0.14l0.43-0.86l1.4,0.23l0.83,0.13L162.62,227.08z"/>
				<path class="st1" d="M168.91,228.26l-3.61-0.73l0.18-0.9l2.72,0.55l1.28-6.34c0.04-0.22,0.07-0.42,0.07-0.61
					c0-0.19-0.03-0.36-0.11-0.5c-0.08-0.16-0.21-0.27-0.38-0.35c-0.17-0.08-0.36-0.13-0.56-0.17l-1.19-0.24l0.4-0.9
					c0.08,0.01,0.16,0.02,0.22,0.03c0.06,0.01,0.12,0.02,0.19,0.03s0.13,0.03,0.2,0.04c0.07,0.01,0.15,0.03,0.24,0.05
					c0.35,0.07,0.66,0.15,0.91,0.25c0.25,0.09,0.45,0.21,0.61,0.36c0.08,0.08,0.16,0.18,0.23,0.3c0.07,0.12,0.12,0.25,0.15,0.42
					c0.04,0.17,0.05,0.36,0.05,0.57c0,0.22-0.03,0.47-0.09,0.76L168.91,228.26z"/>
				<path class="st1" d="M178.84,230.92l-0.86-0.25l2-6.82c0.16-0.55,0.16-0.99,0-1.32s-0.52-0.58-1.07-0.74l-3.57-1.05l-2.47,8.43
					l-0.84-0.25l2.72-9.27c0.24,0.05,0.49,0.11,0.75,0.18c0.26,0.07,0.53,0.13,0.8,0.21c0.27,0.07,0.53,0.14,0.79,0.21
					c0.26,0.07,0.5,0.14,0.72,0.21c0.3,0.09,0.61,0.18,0.94,0.28c0.33,0.1,0.64,0.2,0.93,0.31c0.6,0.22,1.01,0.55,1.23,1.01
					c0.22,0.46,0.22,1.02,0.02,1.7L178.84,230.92z"/>
			</g>
		</g>
		<g>
			<g>
				<path class="st2" d="M108.1,115.92c-4.57,3.46-6.86,8.64-6.86,15.56c0,0.92,0.05,1.84,0.14,2.77c0.1,0.92,0.24,1.83,0.43,2.71
					c0.65,3.46,0.65,6.2,0,8.24c-0.42,1.27-1.15,2.36-2.19,3.28c-1.04,1.04-2.07,1.56-3.11,1.56c-2.11,0-3.57-1.13-4.38-3.4
					c-0.61-1.61-0.92-3.32-0.92-5.13c0-2.07,0.42-4.15,1.27-6.22c1.04-2.73,1.67-4.82,1.9-6.28c0.27-1.73,0.27-4.17,0-7.32
					c-0.23-2.88-0.49-5.35-0.78-7.4c-0.29-2.05-0.59-3.72-0.89-4.98c-1.38-5.91-3.86-11.14-7.43-15.67
					c-0.31-0.42-0.46-0.73-0.46-0.92c0-0.92,1.09-0.73,3.28,0.58c2.19,1.35,4.05,3.42,5.59,6.22c3.03,5.3,4.76,11.91,5.19,19.82
					c0.04,2.07,0.27,3.11,0.69,3.11c0.15,0,0.4-0.33,0.75-0.98c0.42-1.08,1.48-2.36,3.17-3.86c1.34-1.31,2.32-2.09,2.94-2.36
					c1.57-0.88,2.63-1.33,3.17-1.33c0.15,0,0.23,0.04,0.23,0.12C109.83,114.33,109.26,114.96,108.1,115.92z"/>
				<path class="st2" d="M142.35,133.84c0,3.07-1.38,4.61-4.15,4.61c-1.61,0-4.28-1.02-8.01-3.05c-4.46-2.46-7.72-3.69-9.79-3.69
					c-1.5,0-2.46,1.08-2.88,3.23c-0.31,1.81-0.65,3.65-1.04,5.53c-0.42,1.11-1.44,1.67-3.05,1.67c-1.96,0-2.94-0.83-2.94-2.48
					c0-0.15,0.01-0.33,0.03-0.52c0.02-0.19,0.05-0.38,0.09-0.58c1.5-8.8,4.4-13.19,8.7-13.19c0.58,0,1.57,0.15,3,0.46
					c1.46,0.31,2.52,0.46,3.17,0.46c1.31,0,1.84-0.35,1.61-1.04c-0.27-0.77-1.52-1.82-3.75-3.17c-2.61-1.57-5.21-2.36-7.78-2.36
					c-1.58,0-2.94,0.4-4.09,1.21c-1.19,0.77-1.84,1.15-1.96,1.15c-0.23,0-0.35-0.17-0.35-0.52c0-0.42,0.19-0.96,0.58-1.61
					c1.42-2.23,4.07-3.34,7.95-3.34c2.07,0,4.15,0.37,6.22,1.09c2.5,0.85,4.78,1.84,6.86,3s3.98,2.5,5.7,4.03
					C139.85,127.73,141.81,130.77,142.35,133.84z"/>
				<path class="st2" d="M177.27,100.48c-9.14,3.46-16.06,7.63-20.74,12.5c-4.34,4.53-6.51,9.22-6.51,14.06
					c0,1.96,0.83,3.71,2.48,5.24c1.65,1.54,3.5,2.3,5.53,2.3c4.8,0,7.2-2.09,7.2-6.28c0-0.58-0.15-1.33-0.46-2.25
					c-0.31-1-0.46-1.67-0.46-2.02c0-1.23,1.06-1.84,3.17-1.84c1.54,0,2.92,0.38,4.15,1.15c3.3,2.19,4.96,4.94,4.96,8.24
					c0,2.96-1.34,5.44-4.03,7.43c-2.84,2.23-6.68,3.34-11.52,3.34c-4.34,0-8.09-1.11-11.24-3.34c-3.61-2.57-5.42-6.22-5.42-10.95
					c0-5.26,3.57-10.93,10.72-17c6.72-5.76,14-9.89,21.84-12.39c1.15-0.31,2.02-0.46,2.59-0.46c0.46,0,0.69,0.12,0.69,0.35
					C180.21,99.12,179.23,99.75,177.27,100.48z"/>
			</g>
		</g>
		<g>
			<path class="st1" d="M124.57,160.96h-1.63v-12.33h-7.1v-1.61h8.73V160.96z M117.76,160.96h-1.63v-8.61h1.63V160.96z"/>
			<path class="st1" d="M130.45,155.09h-1.14h-0.45v-6.49h-1.49v-1.58h3.09V155.09z"/>
			<path class="st1" d="M140.91,160.96h-1.61V148.6h-6.04v-1.58h6.99c0.17,0,0.32,0.06,0.45,0.19s0.21,0.33,0.21,0.62V160.96z"/>
			<path class="st1" d="M152.96,154.66c0,0.73-0.11,1.39-0.34,1.97s-0.51,1.1-0.86,1.54l-2.4,2.9l-1-1.01l2.2-2.71
				c0.31-0.4,0.53-0.8,0.64-1.2s0.17-0.89,0.17-1.46v-6.09h-6.87v-1.58h8.47V154.66z M146.15,164.62h-1.63v-12.82h1.63V164.62z"/>
			<path class="st1" d="M164.15,160.96h-8.61v-1.6h5.67v-10.74h-5.3v-1.61h6.93v12.35h1.32V160.96z"/>
		</g>
		<g>
			<path class="st3" d="M60.24,42.14c1.53,2.19,3.38,4.04,5.51,5.45c2.11,1.43,4.41,2.48,6.8,3.31c4.79,1.63,9.86,2.4,14.99,2.97
				c10.28,1.08,20.84,1.28,31.56,2.45c2.68,0.26,5.37,0.62,8.07,1.03c2.68,0.41,5.45,0.91,8.07,1.44
				c5.28,1.09,10.59,2.28,15.84,3.85c2.63,0.78,5.26,1.61,7.87,2.53c2.6,0.96,5.2,1.97,7.76,3.11c5.14,2.24,10.15,4.97,14.91,8.23
				c4.75,3.27,9.17,7.14,13.07,11.52c3.85,4.43,7.14,9.36,9.71,14.58c2.54,5.24,4.41,10.73,5.63,16.27
				c1.27,5.54,1.87,11.12,2.15,16.66c0.24,5.57-0.03,11.48-1.52,17.13c-1.42,5.66-3.97,10.9-7.05,15.53
				c-3.1,4.64-6.68,8.78-10.54,12.54c-3.83,3.79-7.96,7.2-12.23,10.4c6.42-8.47,12.74-17.02,16.88-26.21
				c2.07-4.58,3.5-9.27,4.06-13.98c0.56-4.73,0.33-9.49-0.42-14.42c-1.5-9.93-4.2-19.51-8.79-27.81
				c-4.56-8.32-11.03-15.26-18.92-20.72c-7.88-5.49-17.03-9.56-26.58-13c-4.8-1.67-9.68-3.26-14.66-4.68c-2.51-0.75-4.89-1.4-7.39-2
				c-2.48-0.6-5-1.14-7.53-1.68c-5.07-1.05-10.24-1.98-15.44-2.99c-2.61-0.49-5.22-1.02-7.84-1.59c-2.62-0.56-5.25-1.17-7.87-1.89
				c-2.62-0.71-5.24-1.5-7.81-2.48c-2.57-0.96-5.11-2.1-7.51-3.51c-2.4-1.39-4.66-3.09-6.54-5.12C62.6,47.01,61.1,44.66,60.24,42.14
				z"/>
		</g>
		<g>
			<path class="st3" d="M55.19,33.77c4.16,5.24,7.42,11.29,9.81,17.67c2.41,6.38,4.02,13.05,5.16,19.75
				c2.28,13.41,2.69,26.95,3.43,40c0.41,6.52,0.89,12.98,1.78,19.28c0.83,6.31,2.09,12.47,3.85,18.33
				c3.63,11.62,9.6,22.39,18.93,28.68c4.72,3.27,10.22,5.87,16.08,7.93c5.86,2.1,12.05,3.73,18.38,5.26c3.16,0.77,6.37,1.5,9.6,2.23
				l4.86,1.13c1.57,0.37,3.06,0.68,4.65,0.98c6.32,1.16,12.94,2.15,19.54,3.36c13.19,2.42,26.6,5.64,38.98,11.55
				c6.17,2.95,12.06,6.57,17.23,11.01c5.17,4.44,9.58,9.71,12.82,15.53c-4.29-5.1-9.32-9.4-14.81-12.85
				c-5.48-3.47-11.4-6.11-17.5-8.18c-12.23-4.12-25.1-5.99-38.12-7.31c-6.53-0.68-13.09-1.15-19.88-2
				c-1.69-0.21-3.46-0.47-5.15-0.75l-4.9-0.77c-3.28-0.53-6.58-1.07-9.91-1.66c-6.65-1.22-13.37-2.67-20.09-4.79
				c-6.68-2.19-13.46-4.96-19.67-9.24c-3.11-2.11-6.06-4.57-8.71-7.39c-1.35-1.39-2.57-2.93-3.67-4.39
				c-0.56-0.74-1.08-1.51-1.62-2.26l-1.52-2.33c-1.95-3.14-3.63-6.42-5.06-9.77c-1.4-3.36-2.56-6.78-3.51-10.22
				c-3.75-13.82-4.27-27.7-4.07-41.14c0.24-13.46,1.23-26.5,0.81-39.51c-0.21-6.49-0.74-12.96-1.93-19.35
				C59.77,46.19,57.95,39.86,55.19,33.77z"/>
		</g>
	</g>
</g>
</svg>
