<svg id="Layer_1" data-name="Layer 1" xmlns="http://www.w3.org/2000/svg" viewBox="0 0 173.98 132.17"><defs><style>.cls-1{fill:#8dc63f;}.cls-2{fill:#7b0000;}</style></defs><path class="cls-1" d="M42.46,43.35Q29.95,52.82,30,71.73c0,1.68.09,3.35.25,5A48.92,48.92,0,0,0,31,81.72q1.79,9.47,0,15a13.46,13.46,0,0,1-4,6c-1.9,1.9-3.77,2.85-5.67,2.85q-5.78,0-8-6.2A26.29,26.29,0,0,1,11.65,90,29.68,29.68,0,0,1,14,78.68a61.38,61.38,0,0,0,3.46-11.46,58.34,58.34,0,0,0,0-13.35Q16.81,46,16,40.38c-.53-3.74-1.07-6.79-1.62-9.08A72,72,0,0,0,.84,2.72,3.49,3.49,0,0,1,0,1Q0-1.48,6,2.1a29.66,29.66,0,0,1,10.2,11.34q8.28,14.51,9.46,36.15c.07,3.77.49,5.67,1.26,5.67.27,0,.73-.6,1.37-1.79.76-2,2.7-4.3,5.78-7,2.44-2.39,4.23-3.81,5.36-4.3,2.86-1.61,4.8-2.43,5.78-2.43.27,0,.42.08.42.22C45.61,40.45,44.57,41.6,42.46,43.35Z"/><path class="cls-1" d="M104.92,76q0,8.4-7.57,8.41-4.41,0-14.61-5.56-12.19-6.73-17.85-6.73c-2.74,0-4.49,2-5.25,5.89-.57,3.3-1.19,6.65-1.9,10.08-.77,2-2.63,3-5.56,3q-5.37,0-5.37-4.52a8.34,8.34,0,0,1,.06-1c0-.35.09-.7.16-1.06q4.11-24.07,15.87-24a30.31,30.31,0,0,1,5.47.83,31.17,31.17,0,0,0,5.78.84c2.39,0,3.36-.63,2.94-1.89s-2.77-3.32-6.84-5.78a27.35,27.35,0,0,0-14.19-4.31,12.6,12.6,0,0,0-7.46,2.21A21.37,21.37,0,0,1,45,54.59c-.42,0-.64-.31-.64-1a6.15,6.15,0,0,1,1.06-2.94Q49.33,44.6,60,44.61a34.27,34.27,0,0,1,11.34,2A74.91,74.91,0,0,1,83.8,52.07a57.84,57.84,0,0,1,10.39,7.35Q103.45,67.63,104.92,76Z"/><path class="cls-1" d="M168.6,15.19q-25,9.47-37.82,22.8Q118.9,50.38,118.91,63.63a12.74,12.74,0,0,0,4.52,9.56,14.41,14.41,0,0,0,10.08,4.19q13.14,0,13.13-11.45a13.5,13.5,0,0,0-.83-4.1,15.37,15.37,0,0,1-.84-3.69c0-2.24,1.93-3.35,5.78-3.35a14,14,0,0,1,7.57,2.09c6,4,9,9,9,15q0,8.1-7.35,13.55-7.77,6.11-21,6.09-11.86,0-20.5-6.09-9.87-7-9.88-20,0-14.38,19.55-31A114.2,114.2,0,0,1,168,11.89a20.36,20.36,0,0,1,4.72-.84c.84,0,1.26.22,1.26.64C174,12.71,172.18,13.86,168.6,15.19Z"/><path class="cls-2" d="M72.49,125.49h-3V103H56.57v-2.93H72.49Zm-12.42,0h-3v-15.7h3Z"/><path class="cls-2" d="M83.22,114.79h-2.9V103H77.6v-2.88h5.63v14.72Z"/><path class="cls-2" d="M102.29,125.49H99.36V103h-11v-2.88h12.75a1.11,1.11,0,0,1,.82.35,1.5,1.5,0,0,1,.38,1.13v23.94Z"/><path class="cls-2" d="M124.27,114a9.66,9.66,0,0,1-.62,3.59,10.88,10.88,0,0,1-1.57,2.81l-4.38,5.29-1.82-1.84,4-4.94a6.34,6.34,0,0,0,1.17-2.19,10.17,10.17,0,0,0,.31-2.66V103H108.84v-2.88h15.45V114Zm-12.42,18.17h-3V108.79h3Z"/><path class="cls-2" d="M144.67,125.49H129v-2.92h10.34V103h-9.66v-2.94h12.64v22.52h2.4v2.92Z"/></svg>