<?xml version="1.0" standalone="no"?>
<!DOCTYPE svg PUBLIC "-//W3C//DTD SVG 20010904//EN"
 "http://www.w3.org/TR/2001/REC-SVG-20010904/DTD/svg10.dtd">
<svg version="1.0" xmlns="http://www.w3.org/2000/svg"
 width="363.000000pt" height="363.000000pt" viewBox="0 0 363.000000 363.000000"
 preserveAspectRatio="xMidYMid meet">
<metadata>
Created by potrace 1.14, written by Peter Selinger 2001-2017
</metadata>
<g transform="translate(0.000000,363.000000) scale(0.100000,-0.100000)"
fill="#000000" stroke="none">
<path d="M6 2953 c-14 -14 -3 -39 55 -120 143 -201 243 -474 273 -743 3 -25 8
-63 11 -85 3 -22 7 -58 10 -80 3 -22 8 -107 10 -190 5 -169 -4 -227 -61 -380
-47 -128 -62 -200 -59 -291 6 -210 87 -325 217 -309 68 9 152 92 183 180 22
62 23 206 2 320 -22 116 -20 330 4 425 39 155 103 253 249 383 91 81 31 83
-94 3 -56 -36 -206 -181 -206 -200 0 -6 -9 -22 -20 -36 -29 -38 -39 -17 -45
95 -3 55 -7 118 -10 140 -3 22 -8 54 -9 70 -2 17 -11 64 -20 105 -54 257 -152
467 -275 591 -77 77 -194 143 -215 122z"/>
<path d="M3535 2715 c-171 -37 -465 -180 -675 -328 -321 -226 -529 -469 -584
-682 -22 -84 -15 -222 14 -300 82 -219 304 -353 590 -357 204 -3 344 37 460
131 62 50 85 77 117 141 38 77 39 189 1 271 -62 136 -193 224 -323 220 -103
-3 -130 -35 -105 -120 24 -80 24 -173 2 -223 -11 -24 -29 -51 -39 -60 -73 -66
-235 -84 -333 -36 -153 75 -210 212 -164 395 84 341 438 645 1001 862 99 39
139 67 122 87 -6 8 -14 14 -18 13 -3 0 -33 -7 -66 -14z"/>
<path d="M1151 2018 c-119 -18 -218 -94 -227 -173 -3 -34 18 -32 77 6 95 60
189 69 319 29 121 -36 298 -158 284 -195 -9 -21 -46 -28 -107 -21 -28 4 -56 7
-62 8 -5 0 -21 5 -34 10 -41 15 -146 11 -182 -7 -51 -26 -97 -74 -134 -140
-41 -73 -60 -127 -90 -259 -37 -165 -22 -209 74 -220 62 -7 130 26 137 67 9
54 15 84 19 97 2 8 6 33 10 55 11 79 27 119 58 148 29 27 35 29 89 23 58 -7
189 -55 261 -95 257 -144 394 -183 475 -136 63 38 83 122 52 215 -69 205 -319
419 -625 533 -145 55 -276 73 -394 55z"/>
</g>
</svg>
